<svg version="1.0" xmlns="http://www.w3.org/2000/svg" width="678.667" height="156" viewBox="0 0 509 117"><path id="kiwi-text-logo" d="M36.8 1.7c-2.6 3.1-3.7 5.6-13.9 35.1-19.2 55.6-24.2 74.5-20.7 78 3.6 3.6 10-.7 38.4-26.5l9.1-8.3.5 7.5c.7 10.3 5.2 19.5 11.5 23.5 11.5 7.3 25.3 4.4 46.8-9.8l9-6 .7 4.4c1 6.7 3.7 10.6 9.3 13.4 4.5 2.3 6.1 2.5 17 2.4 17.6 0 34.7-4.5 78.7-20.5 11.9-4.3 21.9-7.9 22.2-7.9.3 0 1.3 2.6 2.1 5.7 7.9 28.4 12.4 29.7 35.1 9.5 5.1-4.5 9.4-7.8 9.8-7.5.3.4.6 1.5.6 2.7 0 3.2 3.9 10.3 6.6 12.1 6.5 4.2 18.3.2 37.7-12.9l9.9-6.6h7.2c4 0 9.8-.5 13-1.1 3.2-.6 5.9-.9 6.1-.7.1.2-.2 3.1-.8 6.4-1 5.6-.8 6.5 1.4 11 1.9 3.9 3.4 5.4 7.4 7.4 4.5 2.3 6.2 2.5 17 2.5 10.5-.1 13.8-.5 26.5-3.8 24.1-6.1 79.2-25.5 82.2-28.9 1.3-1.5 1.5-2.5.8-3.8-1.8-3.4-4.1-3.1-15.2 2-39 18.2-83.3 30.4-101.3 27.9-8.3-1.1-10.9-3.3-11.3-9.6-.2-4.1.3-6.1 3.3-11.6 4.1-7.9 4.3-9.4 1.2-10.8-1.8-.8-3.5-.6-7.7 1.2-9 3.6-15.1 4.9-22.8 4.9-7.9 0-9.9.7-19.5 7.2-7.8 5.3-21.7 11.9-26.4 12.5-2.9.4-4.2.1-5.5-1.4-2.1-2.3-3.8-8.6-3.8-14 0-2.9-.5-4.5-1.7-5.2-1.4-.7-3.6.9-11.7 8.6-11.2 10.7-22 18.8-23.9 18-1.9-.7-5.4-12-6.9-22.2-1.7-11.7-2.2-11.9-14.6-6.1-30.9 14.3-67.7 26.1-88.7 28.4-9.7 1.1-18.9 0-22.4-2.6-4-3-4.1-10.1-.1-17.6 1.6-3.2 3-7.1 3-8.7 0-2.5-.4-2.9-2.9-2.9-2.2 0-5 1.8-11.1 7-11.3 9.8-19.4 15.4-28.6 19.7-6.8 3.3-8.9 3.8-14.9 3.8-5.4 0-7.6-.5-9.7-2-3.8-2.7-7.6-10.8-8.4-17.7l-.7-5.7 10.4-9.7c14.1-13.2 36.4-36.1 39.5-40.6 3.1-4.4 2.7-8.8-.8-8.8-2.8 0-12.3 7.8-29.3 24.1-28.7 27.4-45.9 43-64.8 58.8-.9.8-2 1.2-2.3.9-1.3-1.4 9.7-34.7 25.8-77.6 7.9-21.1 9-24.6 8-26.7-1.4-2.9-3.3-3.2-5.4-.8z"/><path d="M177 38c-1.4.4-11.4.8-22.2.9-16.4.1-19.9.4-21.2 1.7-3.3 3.2-.6 7.4 4.7 7.4 1.8 0 6.8-.4 11.2-1 4.4-.5 13.3-1.4 19.7-1.9 13.1-1.1 16.1-2.1 15.6-5.4-.3-2.4-3.5-3.1-7.8-1.7zM431 38c-1.4.4-11.4.8-22.2.9-16.4.1-19.9.4-21.2 1.7-3.3 3.2-.6 7.4 4.7 7.4 1.8 0 6.8-.4 11.2-1 4.4-.5 13.3-1.4 19.7-1.9 13.1-1.1 16.1-2.1 15.6-5.4-.3-2.4-3.5-3.1-7.8-1.7z"/></svg>